<svg xmlns="http://www.w3.org/2000/svg" xmlns:xlink="http://www.w3.org/1999/xlink" width="500" zoomAndPan="magnify" viewBox="0 0 375 374.999991" height="500" preserveAspectRatio="xMidYMid meet" version="1.0"><defs><g/><clipPath id="10c224eb14"><path d="M 28.484375 152.503906 L 156.734375 152.503906 L 156.734375 259.003906 L 28.484375 259.003906 Z M 28.484375 152.503906 " clip-rule="nonzero"/></clipPath></defs><path fill="#00bf63" d="M 153.425781 178.222656 C 153.769531 178.15625 154.117188 178.089844 154.46875 178.027344 C 154.113281 178.089844 153.769531 178.15625 153.425781 178.222656 Z M 153.425781 178.222656 " fill-opacity="1" fill-rule="evenodd"/><path fill="#00bf63" d="M 152.929688 178.320312 C 153.089844 178.289062 153.25 178.257812 153.414062 178.226562 C 153.25 178.257812 153.089844 178.289062 152.929688 178.320312 Z M 152.929688 178.320312 " fill-opacity="1" fill-rule="evenodd"/><path fill="#00bf63" d="M 152.410156 178.429688 C 152.570312 178.394531 152.734375 178.363281 152.898438 178.328125 C 152.734375 178.363281 152.570312 178.394531 152.410156 178.429688 Z M 152.410156 178.429688 " fill-opacity="1" fill-rule="evenodd"/><path fill="#00bf63" d="M 151.914062 178.535156 C 152.070312 178.5 152.234375 178.464844 152.394531 178.433594 C 152.234375 178.46875 152.074219 178.5 151.914062 178.535156 Z M 151.914062 178.535156 " fill-opacity="1" fill-rule="evenodd"/><path fill="#00bf63" d="M 151.421875 178.640625 C 151.582031 178.601562 151.742188 178.566406 151.902344 178.535156 C 151.742188 178.566406 151.582031 178.601562 151.421875 178.640625 Z M 151.421875 178.640625 " fill-opacity="1" fill-rule="evenodd"/><path fill="#00bf63" d="M 150.949219 178.75 C 151.105469 178.714844 151.261719 178.679688 151.421875 178.640625 C 151.261719 178.675781 151.109375 178.714844 150.949219 178.75 Z M 150.949219 178.75 " fill-opacity="1" fill-rule="evenodd"/><path fill="#7ed957" d="M 56.832031 165.480469 C 54.707031 193.9375 68.789062 214.023438 87.640625 219.570312 C 92.429688 213.628906 97.339844 207.050781 102.367188 199.835938 C 83.4375 194.902344 68.253906 183.449219 56.832031 165.480469 Z M 56.832031 165.480469 " fill-opacity="1" fill-rule="evenodd"/><g clip-path="url(#10c224eb14)"><path fill="#00bf63" d="M 85.765625 217.605469 C 66.914062 212.058594 52.832031 191.972656 54.957031 163.519531 C 66.382812 181.488281 81.5625 192.9375 100.496094 197.875 C 95.464844 205.089844 90.550781 211.667969 85.765625 217.605469 Z M 101.285156 196.714844 C 111.304688 182.164062 120.867188 173.519531 129.960938 170.796875 C 140.519531 167.628906 145.691406 175.4375 154.988281 176.804688 C 145.839844 177.171875 140.414062 169.15625 130.429688 172.835938 C 121.425781 176.148438 113.472656 185.230469 104.558594 197.664062 C 112.6875 199.808594 121.558594 200.730469 131.171875 200.429688 C 121.351562 201.070312 112.242188 200.484375 103.835938 198.671875 C 101.757812 201.601562 99.617188 204.707031 97.398438 207.960938 C 94.710938 211.671875 92.035156 215.179688 89.371094 218.484375 C 102.6875 221.019531 117.910156 216.523438 131.351562 203.003906 C 119.421875 218.601562 102.527344 223.917969 87.316406 221 C 66.925781 245.597656 47.34375 258.265625 28.566406 259.007812 C 44.65625 258.117188 63.03125 245.160156 83.695312 220.140625 C 61.132812 213.742188 43.65625 188.820312 54.398438 152.503906 C 65.011719 175.53125 80.636719 190.273438 101.277344 196.722656 Z M 51.476562 252.394531 C 68.347656 248.984375 85.597656 240.617188 103.234375 227.289062 C 88.339844 241.90625 71.085938 250.277344 51.476562 252.394531 Z M 134.488281 194.730469 C 128.371094 217.535156 111.886719 228.03125 85.039062 226.222656 C 114.253906 231.332031 131.664062 220.875 137.269531 194.863281 C 139.433594 184.789062 146.703125 179.15625 156.648438 176.890625 C 143.785156 178.960938 137.753906 182.542969 134.488281 194.726562 Z M 134.488281 194.730469 " fill-opacity="1" fill-rule="evenodd"/></g><g fill="#00bf63" fill-opacity="1"><g transform="translate(159.669435, 199.528409)"><g><path d="M 1.796875 -23.703125 L 9.921875 -23.703125 C 11.785156 -23.703125 13.179688 -23.207031 14.109375 -22.21875 C 15.035156 -21.226562 15.5 -19.738281 15.5 -17.75 C 15.5 -16.070312 15.242188 -14.789062 14.734375 -13.90625 C 14.234375 -13.019531 13.445312 -12.4375 12.375 -12.15625 L 12.375 -12.03125 C 13.5625 -11.726562 14.410156 -11.148438 14.921875 -10.296875 C 15.441406 -9.453125 15.703125 -8.132812 15.703125 -6.34375 C 15.703125 -4.25 15.253906 -2.664062 14.359375 -1.59375 C 13.460938 -0.53125 11.984375 0 9.921875 0 L 1.796875 0 Z M 8.640625 -14.015625 C 9.242188 -14.015625 9.695312 -14.082031 10 -14.21875 C 10.3125 -14.363281 10.53125 -14.628906 10.65625 -15.015625 C 10.789062 -15.410156 10.859375 -16 10.859375 -16.78125 C 10.859375 -17.601562 10.800781 -18.203125 10.6875 -18.578125 C 10.570312 -18.960938 10.363281 -19.21875 10.0625 -19.34375 C 9.757812 -19.46875 9.285156 -19.53125 8.640625 -19.53125 L 6.484375 -19.53125 L 6.484375 -14.015625 Z M 8.75 -4.171875 C 9.394531 -4.171875 9.863281 -4.238281 10.15625 -4.375 C 10.457031 -4.507812 10.664062 -4.769531 10.78125 -5.15625 C 10.894531 -5.550781 10.953125 -6.175781 10.953125 -7.03125 C 10.953125 -7.875 10.894531 -8.5 10.78125 -8.90625 C 10.664062 -9.3125 10.453125 -9.582031 10.140625 -9.71875 C 9.835938 -9.851562 9.375 -9.921875 8.75 -9.921875 L 6.484375 -9.921875 L 6.484375 -4.171875 Z M 8.75 -4.171875 "/></g></g></g><g fill="#00bf63" fill-opacity="1"><g transform="translate(181.304025, 199.528409)"><g><path d="M 1.828125 0 L 1.828125 -23.703125 L 6.546875 -23.703125 L 6.546875 0 Z M 1.828125 0 "/></g></g></g><g fill="#00bf63" fill-opacity="1"><g transform="translate(194.498495, 199.528409)"><g><path d="M 11.40625 0 L 9.09375 -8.265625 L 6.546875 -8.265625 L 6.546875 0 L 1.796875 0 L 1.796875 -23.703125 L 9.78125 -23.703125 C 11.476562 -23.703125 12.757812 -23.414062 13.625 -22.84375 C 14.488281 -22.269531 15.066406 -21.441406 15.359375 -20.359375 C 15.660156 -19.285156 15.8125 -17.835938 15.8125 -16.015625 C 15.8125 -14.296875 15.65625 -12.875 15.34375 -11.75 C 15.039062 -10.625 14.414062 -9.773438 13.46875 -9.203125 L 16.328125 0 Z M 8.640625 -12.375 C 9.398438 -12.375 9.941406 -12.457031 10.265625 -12.625 C 10.585938 -12.800781 10.800781 -13.125 10.90625 -13.59375 C 11.007812 -14.0625 11.0625 -14.859375 11.0625 -15.984375 C 11.0625 -17.085938 11.007812 -17.867188 10.90625 -18.328125 C 10.800781 -18.785156 10.585938 -19.097656 10.265625 -19.265625 C 9.941406 -19.441406 9.398438 -19.53125 8.640625 -19.53125 L 6.546875 -19.53125 L 6.546875 -12.375 Z M 8.640625 -12.375 "/></g></g></g><g fill="#00bf63" fill-opacity="1"><g transform="translate(216.339784, 199.528409)"><g><path d="M 1.796875 -23.703125 L 8.203125 -23.703125 C 10.640625 -23.703125 12.378906 -23.363281 13.421875 -22.6875 C 14.460938 -22.007812 15.109375 -20.914062 15.359375 -19.40625 C 15.617188 -17.90625 15.75 -15.390625 15.75 -11.859375 C 15.75 -8.316406 15.617188 -5.789062 15.359375 -4.28125 C 15.109375 -2.78125 14.460938 -1.691406 13.421875 -1.015625 C 12.378906 -0.335938 10.640625 0 8.203125 0 L 1.796875 0 Z M 8.125 -4.171875 C 9.132812 -4.171875 9.816406 -4.289062 10.171875 -4.53125 C 10.535156 -4.769531 10.769531 -5.367188 10.875 -6.328125 C 10.976562 -7.296875 11.03125 -9.140625 11.03125 -11.859375 C 11.03125 -14.546875 10.972656 -16.375 10.859375 -17.34375 C 10.742188 -18.320312 10.507812 -18.929688 10.15625 -19.171875 C 9.8125 -19.410156 9.132812 -19.53125 8.125 -19.53125 L 6.515625 -19.53125 L 6.515625 -4.171875 Z M 8.125 -4.171875 "/></g></g></g><g fill="#00bf63" fill-opacity="1"><g transform="translate(238.249976, 199.528409)"><g/></g></g><g fill="#00bf63" fill-opacity="1"><g transform="translate(249.239679, 199.528409)"><g><path d="M 17.84375 0 L 17.84375 -17.46875 L 17.640625 -17.46875 L 14.234375 0 L 9.859375 0 L 6.515625 -17.46875 L 6.234375 -17.46875 L 6.234375 0 L 1.796875 0 L 1.796875 -23.703125 L 8.953125 -23.703125 L 12.0625 -7.296875 L 12.296875 -7.296875 L 15.359375 -23.703125 L 22.421875 -23.703125 L 22.421875 0 Z M 17.84375 0 "/></g></g></g><g fill="#00bf63" fill-opacity="1"><g transform="translate(278.280915, 199.528409)"><g><path d="M 1.796875 0 L 1.796875 -23.703125 L 13.296875 -23.703125 L 13.296875 -19.53125 L 6.546875 -19.53125 L 6.546875 -14.0625 L 12.375 -14.0625 L 12.375 -9.890625 L 6.546875 -9.890625 L 6.546875 -4.171875 L 13.296875 -4.171875 L 13.296875 0 Z M 1.796875 0 "/></g></g></g><g fill="#00bf63" fill-opacity="1"><g transform="translate(297.607393, 199.528409)"><g><path d="M 12.15625 0 L 11.234375 -4.859375 L 5.921875 -4.859375 L 5 0 L 0.28125 0 L 5.171875 -23.703125 L 12.09375 -23.703125 L 16.984375 0 Z M 8.6875 -19.21875 L 8.46875 -19.21875 L 6.609375 -8.953125 L 10.515625 -8.953125 Z M 8.6875 -19.21875 "/></g></g></g><g fill="#00bf63" fill-opacity="1"><g transform="translate(319.689826, 199.528409)"><g><path d="M 1.796875 0 L 1.796875 -23.703125 L 6.546875 -23.703125 L 6.546875 -4.3125 L 12.546875 -4.3125 L 12.546875 0 Z M 1.796875 0 "/></g></g></g><g fill="#7ed957" fill-opacity="1"><g transform="translate(162.342217, 235.551582)"><g><path d="M 5.578125 0.171875 C 4.046875 0.171875 2.957031 -0.0507812 2.3125 -0.5 C 1.664062 -0.945312 1.257812 -1.664062 1.09375 -2.65625 C 0.9375 -3.644531 0.859375 -5.289062 0.859375 -7.59375 C 0.859375 -9.894531 0.9375 -11.539062 1.09375 -12.53125 C 1.257812 -13.519531 1.664062 -14.238281 2.3125 -14.6875 C 2.957031 -15.132812 4.046875 -15.359375 5.578125 -15.359375 C 7.109375 -15.359375 8.195312 -15.132812 8.84375 -14.6875 C 9.488281 -14.238281 9.890625 -13.519531 10.046875 -12.53125 C 10.210938 -11.539062 10.296875 -9.894531 10.296875 -7.59375 C 10.296875 -5.289062 10.210938 -3.644531 10.046875 -2.65625 C 9.890625 -1.664062 9.488281 -0.945312 8.84375 -0.5 C 8.195312 -0.0507812 7.109375 0.171875 5.578125 0.171875 Z M 5.578125 -2.5 C 6.171875 -2.5 6.566406 -2.578125 6.765625 -2.734375 C 6.972656 -2.898438 7.109375 -3.296875 7.171875 -3.921875 C 7.234375 -4.554688 7.265625 -5.78125 7.265625 -7.59375 C 7.265625 -9.394531 7.234375 -10.613281 7.171875 -11.25 C 7.109375 -11.882812 6.972656 -12.28125 6.765625 -12.4375 C 6.566406 -12.601562 6.171875 -12.6875 5.578125 -12.6875 C 4.992188 -12.6875 4.597656 -12.601562 4.390625 -12.4375 C 4.179688 -12.28125 4.046875 -11.882812 3.984375 -11.25 C 3.929688 -10.613281 3.90625 -9.394531 3.90625 -7.59375 C 3.90625 -5.78125 3.929688 -4.554688 3.984375 -3.921875 C 4.046875 -3.296875 4.179688 -2.898438 4.390625 -2.734375 C 4.597656 -2.578125 4.992188 -2.5 5.578125 -2.5 Z M 5.578125 -2.5 "/></g></g></g><g fill="#7ed957" fill-opacity="1"><g transform="translate(174.604907, 235.551582)"><g><path d="M 7.296875 0 L 5.828125 -5.296875 L 4.1875 -5.296875 L 4.1875 0 L 1.140625 0 L 1.140625 -15.171875 L 6.265625 -15.171875 C 7.347656 -15.171875 8.164062 -14.988281 8.71875 -14.625 C 9.269531 -14.257812 9.640625 -13.726562 9.828125 -13.03125 C 10.023438 -12.34375 10.125 -11.421875 10.125 -10.265625 C 10.125 -9.160156 10.023438 -8.242188 9.828125 -7.515625 C 9.628906 -6.796875 9.226562 -6.253906 8.625 -5.890625 L 10.453125 0 Z M 5.53125 -7.921875 C 6.019531 -7.921875 6.367188 -7.972656 6.578125 -8.078125 C 6.785156 -8.191406 6.921875 -8.398438 6.984375 -8.703125 C 7.046875 -9.003906 7.078125 -9.515625 7.078125 -10.234375 C 7.078125 -10.941406 7.046875 -11.441406 6.984375 -11.734375 C 6.921875 -12.023438 6.785156 -12.226562 6.578125 -12.34375 C 6.367188 -12.457031 6.019531 -12.515625 5.53125 -12.515625 L 4.1875 -12.515625 L 4.1875 -7.921875 Z M 5.53125 -7.921875 "/></g></g></g><g fill="#7ed957" fill-opacity="1"><g transform="translate(186.602942, 235.551582)"><g><path d="M 1.140625 -15.171875 L 5.25 -15.171875 C 6.8125 -15.171875 7.925781 -14.953125 8.59375 -14.515625 C 9.257812 -14.085938 9.671875 -13.390625 9.828125 -12.421875 C 9.992188 -11.460938 10.078125 -9.851562 10.078125 -7.59375 C 10.078125 -5.320312 9.992188 -3.703125 9.828125 -2.734375 C 9.671875 -1.773438 9.257812 -1.078125 8.59375 -0.640625 C 7.925781 -0.210938 6.8125 0 5.25 0 L 1.140625 0 Z M 5.203125 -2.671875 C 5.847656 -2.671875 6.285156 -2.75 6.515625 -2.90625 C 6.742188 -3.0625 6.890625 -3.445312 6.953125 -4.0625 C 7.023438 -4.675781 7.0625 -5.851562 7.0625 -7.59375 C 7.0625 -9.3125 7.023438 -10.484375 6.953125 -11.109375 C 6.878906 -11.734375 6.726562 -12.125 6.5 -12.28125 C 6.28125 -12.4375 5.847656 -12.515625 5.203125 -12.515625 L 4.171875 -12.515625 L 4.171875 -2.671875 Z M 5.203125 -2.671875 "/></g></g></g><g fill="#7ed957" fill-opacity="1"><g transform="translate(198.645085, 235.551582)"><g><path d="M 1.140625 0 L 1.140625 -15.171875 L 8.515625 -15.171875 L 8.515625 -12.515625 L 4.1875 -12.515625 L 4.1875 -9 L 7.921875 -9 L 7.921875 -6.328125 L 4.1875 -6.328125 L 4.1875 -2.671875 L 8.515625 -2.671875 L 8.515625 0 Z M 1.140625 0 "/></g></g></g><g fill="#7ed957" fill-opacity="1"><g transform="translate(209.033103, 235.551582)"><g><path d="M 7.296875 0 L 5.828125 -5.296875 L 4.1875 -5.296875 L 4.1875 0 L 1.140625 0 L 1.140625 -15.171875 L 6.265625 -15.171875 C 7.347656 -15.171875 8.164062 -14.988281 8.71875 -14.625 C 9.269531 -14.257812 9.640625 -13.726562 9.828125 -13.03125 C 10.023438 -12.34375 10.125 -11.421875 10.125 -10.265625 C 10.125 -9.160156 10.023438 -8.242188 9.828125 -7.515625 C 9.628906 -6.796875 9.226562 -6.253906 8.625 -5.890625 L 10.453125 0 Z M 5.53125 -7.921875 C 6.019531 -7.921875 6.367188 -7.972656 6.578125 -8.078125 C 6.785156 -8.191406 6.921875 -8.398438 6.984375 -8.703125 C 7.046875 -9.003906 7.078125 -9.515625 7.078125 -10.234375 C 7.078125 -10.941406 7.046875 -11.441406 6.984375 -11.734375 C 6.921875 -12.023438 6.785156 -12.226562 6.578125 -12.34375 C 6.367188 -12.457031 6.019531 -12.515625 5.53125 -12.515625 L 4.1875 -12.515625 L 4.1875 -7.921875 Z M 5.53125 -7.921875 "/></g></g></g><g fill="#7ed957" fill-opacity="1"><g transform="translate(221.031137, 235.551582)"><g/></g></g><g fill="#7ed957" fill-opacity="1"><g transform="translate(226.081855, 235.551582)"><g><path d="M 4.875 0.171875 C 4.257812 0.171875 3.585938 0.140625 2.859375 0.078125 C 2.128906 0.015625 1.484375 -0.078125 0.921875 -0.203125 L 0.921875 -2.671875 C 2.421875 -2.554688 3.457031 -2.5 4.03125 -2.5 C 4.550781 -2.5 4.941406 -2.523438 5.203125 -2.578125 C 5.472656 -2.640625 5.671875 -2.742188 5.796875 -2.890625 C 5.921875 -3.003906 6 -3.164062 6.03125 -3.375 C 6.070312 -3.59375 6.09375 -3.898438 6.09375 -4.296875 C 6.09375 -4.847656 6.0625 -5.234375 6 -5.453125 C 5.9375 -5.679688 5.8125 -5.851562 5.625 -5.96875 C 5.445312 -6.082031 5.128906 -6.179688 4.671875 -6.265625 L 2.609375 -6.640625 C 1.867188 -6.773438 1.359375 -7.179688 1.078125 -7.859375 C 0.796875 -8.535156 0.65625 -9.507812 0.65625 -10.78125 C 0.65625 -12.03125 0.835938 -12.988281 1.203125 -13.65625 C 1.566406 -14.320312 2.0625 -14.769531 2.6875 -15 C 3.320312 -15.238281 4.125 -15.359375 5.09375 -15.359375 C 5.769531 -15.359375 6.421875 -15.3125 7.046875 -15.21875 C 7.671875 -15.132812 8.179688 -15.046875 8.578125 -14.953125 L 8.578125 -12.484375 C 7.785156 -12.617188 6.894531 -12.6875 5.90625 -12.6875 C 5.382812 -12.6875 4.976562 -12.660156 4.6875 -12.609375 C 4.40625 -12.566406 4.195312 -12.488281 4.0625 -12.375 C 3.894531 -12.257812 3.789062 -12.085938 3.75 -11.859375 C 3.707031 -11.640625 3.6875 -11.320312 3.6875 -10.90625 C 3.6875 -10.445312 3.710938 -10.113281 3.765625 -9.90625 C 3.816406 -9.695312 3.90625 -9.546875 4.03125 -9.453125 C 4.164062 -9.367188 4.394531 -9.300781 4.71875 -9.25 L 6.65625 -8.890625 C 7.175781 -8.816406 7.613281 -8.65625 7.96875 -8.40625 C 8.332031 -8.164062 8.617188 -7.769531 8.828125 -7.21875 C 9.035156 -6.625 9.140625 -5.789062 9.140625 -4.71875 C 9.140625 -3.320312 8.96875 -2.269531 8.625 -1.5625 C 8.289062 -0.851562 7.820312 -0.382812 7.21875 -0.15625 C 6.625 0.0625 5.84375 0.171875 4.875 0.171875 Z M 4.875 0.171875 "/></g></g></g><g fill="#7ed957" fill-opacity="1"><g transform="translate(236.955084, 235.551582)"><g><path d="M 3.59375 0 L 3.59375 -5.25 L 0 -15.171875 L 3.109375 -15.171875 L 5.09375 -8.625 L 5.296875 -8.625 L 7.21875 -15.171875 L 10.21875 -15.171875 L 6.625 -5.25 L 6.625 0 Z M 3.59375 0 "/></g></g></g><g fill="#7ed957" fill-opacity="1"><g transform="translate(248.269409, 235.551582)"><g><path d="M 4.875 0.171875 C 4.257812 0.171875 3.585938 0.140625 2.859375 0.078125 C 2.128906 0.015625 1.484375 -0.078125 0.921875 -0.203125 L 0.921875 -2.671875 C 2.421875 -2.554688 3.457031 -2.5 4.03125 -2.5 C 4.550781 -2.5 4.941406 -2.523438 5.203125 -2.578125 C 5.472656 -2.640625 5.671875 -2.742188 5.796875 -2.890625 C 5.921875 -3.003906 6 -3.164062 6.03125 -3.375 C 6.070312 -3.59375 6.09375 -3.898438 6.09375 -4.296875 C 6.09375 -4.847656 6.0625 -5.234375 6 -5.453125 C 5.9375 -5.679688 5.8125 -5.851562 5.625 -5.96875 C 5.445312 -6.082031 5.128906 -6.179688 4.671875 -6.265625 L 2.609375 -6.640625 C 1.867188 -6.773438 1.359375 -7.179688 1.078125 -7.859375 C 0.796875 -8.535156 0.65625 -9.507812 0.65625 -10.78125 C 0.65625 -12.03125 0.835938 -12.988281 1.203125 -13.65625 C 1.566406 -14.320312 2.0625 -14.769531 2.6875 -15 C 3.320312 -15.238281 4.125 -15.359375 5.09375 -15.359375 C 5.769531 -15.359375 6.421875 -15.3125 7.046875 -15.21875 C 7.671875 -15.132812 8.179688 -15.046875 8.578125 -14.953125 L 8.578125 -12.484375 C 7.785156 -12.617188 6.894531 -12.6875 5.90625 -12.6875 C 5.382812 -12.6875 4.976562 -12.660156 4.6875 -12.609375 C 4.40625 -12.566406 4.195312 -12.488281 4.0625 -12.375 C 3.894531 -12.257812 3.789062 -12.085938 3.75 -11.859375 C 3.707031 -11.640625 3.6875 -11.320312 3.6875 -10.90625 C 3.6875 -10.445312 3.710938 -10.113281 3.765625 -9.90625 C 3.816406 -9.695312 3.90625 -9.546875 4.03125 -9.453125 C 4.164062 -9.367188 4.394531 -9.300781 4.71875 -9.25 L 6.65625 -8.890625 C 7.175781 -8.816406 7.613281 -8.65625 7.96875 -8.40625 C 8.332031 -8.164062 8.617188 -7.769531 8.828125 -7.21875 C 9.035156 -6.625 9.140625 -5.789062 9.140625 -4.71875 C 9.140625 -3.320312 8.96875 -2.269531 8.625 -1.5625 C 8.289062 -0.851562 7.820312 -0.382812 7.21875 -0.15625 C 6.625 0.0625 5.84375 0.171875 4.875 0.171875 Z M 4.875 0.171875 "/></g></g></g><g fill="#7ed957" fill-opacity="1"><g transform="translate(259.142638, 235.551582)"><g><path d="M 3.09375 0 L 3.09375 -12.421875 L 0.21875 -12.421875 L 0.21875 -15.171875 L 9 -15.171875 L 9 -12.421875 L 6.140625 -12.421875 L 6.140625 0 Z M 3.09375 0 "/></g></g></g><g fill="#7ed957" fill-opacity="1"><g transform="translate(269.464489, 235.551582)"><g><path d="M 1.140625 0 L 1.140625 -15.171875 L 8.515625 -15.171875 L 8.515625 -12.515625 L 4.1875 -12.515625 L 4.1875 -9 L 7.921875 -9 L 7.921875 -6.328125 L 4.1875 -6.328125 L 4.1875 -2.671875 L 8.515625 -2.671875 L 8.515625 0 Z M 1.140625 0 "/></g></g></g><g fill="#7ed957" fill-opacity="1"><g transform="translate(279.852507, 235.551582)"><g><path d="M 11.421875 0 L 11.421875 -11.1875 L 11.296875 -11.1875 L 9.109375 0 L 6.3125 0 L 4.171875 -11.1875 L 4 -11.1875 L 4 0 L 1.140625 0 L 1.140625 -15.171875 L 5.734375 -15.171875 L 7.71875 -4.671875 L 7.875 -4.671875 L 9.84375 -15.171875 L 14.359375 -15.171875 L 14.359375 0 Z M 11.421875 0 "/></g></g></g></svg>